name rise30.2954peak35.7071fall66.7804.mot
datacolumns 19
datarows 32
range 10.56829300000000 10.61996200000000
endheader
time	ground_force1_vx	ground_force1_vy	ground_force1_vz	ground_force1_px	ground_force1_py	ground_force1_pz	ground_force2_vx	ground_force2_vy	ground_force2_vz	ground_force2_px	ground_force2_py	ground_force2_pz	ground_torque1_x	ground_torque1_y	ground_torque1_z	ground_torque2_x	ground_torque2_y	ground_torque2_z	
10.56829300000000	-5.40254300000000	43.59723900000000	-9.06270700000000	0.31714200000000	0.00000000000000	0.13628400000000	-46.47063200000000	785.52290600000003	-49.71490400000000	0.16475200000000	0.00000000000000	-0.05332300000000	0.00000000000000	-5.74391700000000	0.00000000000000	0.00000000000000	-20.57197800000000	0.00000000000000	
10.56996400000000	-5.79417100000000	51.40763700000000	-10.17750000000000	0.32231900000000	0.00000000000000	0.13742900000000	-47.62203900000000	782.39556300000004	-49.40543000000000	0.16347700000000	0.00000000000000	-0.05325800000000	0.00000000000000	-6.57323000000000	0.00000000000000	0.00000000000000	-20.51227900000000	0.00000000000000	
10.57163300000000	-6.04579600000000	59.39442900000000	-11.18489600000000	0.32706200000000	0.00000000000000	0.13844200000000	-48.78830400000000	779.11480800000004	-49.07806600000000	0.16219800000000	0.00000000000000	-0.05319200000000	0.00000000000000	-7.36217100000000	0.00000000000000	0.00000000000000	-20.45192900000000	0.00000000000000	
10.57330000000000	-6.14141100000000	67.45983500000000	-12.06057400000000	0.33144800000000	0.00000000000000	0.13934700000000	-49.96741800000000	775.67692499999998	-48.73236200000000	0.16091600000000	0.00000000000000	-0.05312500000000	0.00000000000000	-8.09415000000000	0.00000000000000	0.00000000000000	-20.39067400000000	0.00000000000000	
10.57496800000000	-6.07195600000000	75.52745899999999	-12.78836200000000	0.33553600000000	0.00000000000000	0.14016100000000	-51.15725700000000	772.07824700000003	-48.36788600000000	0.15963100000000	0.00000000000000	-0.05305700000000	0.00000000000000	-8.75717000000000	0.00000000000000	0.00000000000000	-20.32824800000000	0.00000000000000	
10.57662700000000	-5.83512800000000	83.54491500000000	-13.36033500000000	0.33937200000000	0.00000000000000	0.14089900000000	-52.35558100000000	768.31516599999998	-47.98423500000000	0.15834600000000	0.00000000000000	-0.05298700000000	0.00000000000000	-9.34407800000000	0.00000000000000	0.00000000000000	-20.26437500000000	0.00000000000000	
10.57830200000000	-5.43468200000000	91.48404400000000	-13.77622600000000	0.34299300000000	0.00000000000000	0.14157300000000	-53.56004100000000	764.38415299999997	-47.58103000000000	0.15706200000000	0.00000000000000	-0.05291500000000	0.00000000000000	-9.85237500000000	0.00000000000000	0.00000000000000	-20.19877200000000	0.00000000000000	
10.57995900000000	-4.87935300000000	99.33909500000000	-14.04231100000000	0.34642800000000	0.00000000000000	0.14219000000000	-54.76818700000000	760.28177000000005	-47.15792500000000	0.15578000000000	0.00000000000000	-0.05284200000000	0.00000000000000	-10.28368000000000	0.00000000000000	0.00000000000000	-20.13114500000000	0.00000000000000	
10.58163200000000	-4.18157000000000	107.12337200000000	-14.16994700000000	0.34970100000000	0.00000000000000	0.14276000000000	-55.97746800000000	756.00468899999998	-46.71460800000000	0.15450300000000	0.00000000000000	-0.05276700000000	0.00000000000000	-10.64294300000000	0.00000000000000	0.00000000000000	-20.06119500000000	0.00000000000000	
10.58329900000000	-3.35608700000000	114.86491200000000	-14.17395300000000	0.35283000000000	0.00000000000000	0.14328700000000	-57.18524700000000	751.54970900000001	-46.25080600000000	0.15323200000000	0.00000000000000	-0.05268900000000	0.00000000000000	-10.93752200000000	0.00000000000000	0.00000000000000	-19.98861900000000	0.00000000000000	
10.58496400000000	-2.41867000000000	122.60169200000000	-14.07098400000000	0.35583300000000	0.00000000000000	0.14377800000000	-58.38879700000000	746.91377199999999	-45.76628300000000	0.15196800000000	0.00000000000000	-0.05261000000000	0.00000000000000	-11.17621200000000	0.00000000000000	0.00000000000000	-19.91310600000000	0.00000000000000	
10.58662900000000	-1.38493300000000	130.37686700000000	-13.87804600000000	0.35872100000000	0.00000000000000	0.14423600000000	-59.58531900000000	742.09398299999998	-45.26085000000000	0.15071300000000	0.00000000000000	-0.05252800000000	0.00000000000000	-11.36833400000000	0.00000000000000	0.00000000000000	-19.83434600000000	0.00000000000000	
10.58829500000000	-0.26938900000000	138.23439200000001	-13.61122700000000	0.36150600000000	0.00000000000000	0.14466500000000	-60.77194100000000	737.08762800000000	-44.73436400000000	0.14947000000000	0.00000000000000	-0.05244300000000	0.00000000000000	-11.52292100000000	0.00000000000000	0.00000000000000	-19.75202300000000	0.00000000000000	
10.58996500000000	0.91524500000000	146.21531899999999	-13.28473400000000	0.36419700000000	0.00000000000000	0.14506900000000	-61.94573400000000	731.89219300000002	-44.18672900000000	0.14823900000000	0.00000000000000	-0.05235600000000	0.00000000000000	-11.64807800000000	0.00000000000000	0.00000000000000	-19.66582300000000	0.00000000000000	
10.59162900000000	2.15848000000000	154.35492800000000	-12.91022200000000	0.36680200000000	0.00000000000000	0.14544900000000	-63.10371300000000	726.50538300000005	-43.61790200000000	0.14702200000000	0.00000000000000	-0.05226500000000	0.00000000000000	-11.75050700000000	0.00000000000000	0.00000000000000	-19.57543200000000	0.00000000000000	
10.59330100000000	3.45223800000000	162.68077400000001	-12.49645200000000	0.36932500000000	0.00000000000000	0.14580800000000	-64.24285100000000	720.92514100000005	-43.02789400000000	0.14582000000000	0.00000000000000	-0.05217200000000	0.00000000000000	-11.83523300000000	0.00000000000000	0.00000000000000	-19.48053800000000	0.00000000000000	
10.59496700000000	4.79081500000000	171.21162300000000	-12.04921900000000	0.37177300000000	0.00000000000000	0.14614900000000	-65.36008500000000	715.14966600000002	-42.41677200000000	0.14463700000000	0.00000000000000	-0.05207600000000	0.00000000000000	-11.90549200000000	0.00000000000000	0.00000000000000	-19.38083000000000	0.00000000000000	
10.59663400000000	6.17066700000000	179.95720499999999	-11.57151800000000	0.37415100000000	0.00000000000000	0.14647300000000	-66.45232700000000	709.17743399999995	-41.78465900000000	0.14347200000000	0.00000000000000	-0.05197600000000	0.00000000000000	-11.96278900000000	0.00000000000000	0.00000000000000	-19.27600500000000	0.00000000000000	
10.59829700000000	7.59007200000000	188.91864600000000	-11.06388700000000	0.37646100000000	0.00000000000000	0.14678100000000	-67.51647400000000	703.00721199999998	-41.13174000000000	0.14232800000000	0.00000000000000	-0.05187200000000	0.00000000000000	-12.00705900000000	0.00000000000000	0.00000000000000	-19.16576100000000	0.00000000000000	
10.59996400000000	9.04870400000000	198.08942999999999	-10.52488300000000	0.37870600000000	0.00000000000000	0.14707400000000	-68.54941400000000	696.63807499999996	-40.45825800000000	0.14120600000000	0.00000000000000	-0.05176500000000	0.00000000000000	-12.03693000000000	0.00000000000000	0.00000000000000	-19.04980600000000	0.00000000000000	
10.60163400000000	10.54718700000000	207.45671100000001	-9.95160500000000	0.38088900000000	0.00000000000000	0.14735500000000	-69.54803900000000	690.06942000000004	-39.76452000000000	0.14010800000000	0.00000000000000	-0.05165400000000	0.00000000000000	-12.05003400000000	0.00000000000000	0.00000000000000	-18.92785400000000	0.00000000000000	
10.60330200000000	12.08664500000000	217.00282799999999	-9.34024800000000	0.38301300000000	0.00000000000000	0.14762300000000	-70.50925400000000	683.30097899999998	-39.05089500000000	0.13903500000000	0.00000000000000	-0.05153900000000	0.00000000000000	-12.04333900000000	0.00000000000000	0.00000000000000	-18.79962800000000	0.00000000000000	
10.60496600000000	13.66829500000000	226.70685700000001	-8.68661400000000	0.38507700000000	0.00000000000000	0.14788100000000	-71.42998900000001	676.33282599999995	-38.31781900000000	0.13798800000000	0.00000000000000	-0.05141900000000	0.00000000000000	-12.01347100000000	0.00000000000000	0.00000000000000	-18.66486200000000	0.00000000000000	
10.60662600000000	15.29310400000000	236.54608999999999	-7.98656800000000	0.38708500000000	0.00000000000000	0.14812800000000	-72.30720400000000	669.16539000000000	-37.56578800000000	0.13697000000000	0.00000000000000	-0.05129600000000	0.00000000000000	-11.95701100000000	0.00000000000000	0.00000000000000	-18.52330100000000	0.00000000000000	
10.60829400000000	16.96152200000000	246.49735200000001	-7.23640700000000	0.38903600000000	0.00000000000000	0.14836600000000	-73.13790800000000	661.79945599999996	-36.79536900000000	0.13598200000000	0.00000000000000	-0.05116800000000	0.00000000000000	-11.87074000000000	0.00000000000000	0.00000000000000	-18.37470300000000	0.00000000000000	
10.60996500000000	18.67329500000000	256.53807699999999	-6.43313900000000	0.39093100000000	0.00000000000000	0.14859400000000	-73.91916200000000	654.23616800000002	-36.00719100000000	0.13502500000000	0.00000000000000	-0.05103500000000	0.00000000000000	-11.75183600000000	0.00000000000000	0.00000000000000	-18.21884000000000	0.00000000000000	
10.61163200000000	20.42736000000000	266.64712700000001	-5.57466000000000	0.39277000000000	0.00000000000000	0.14881400000000	-74.64809300000000	646.47703400000000	-35.20195100000000	0.13410000000000	0.00000000000000	-0.05089700000000	0.00000000000000	-11.59800200000000	0.00000000000000	0.00000000000000	-18.05549900000000	0.00000000000000	
10.61329500000000	22.22181100000000	276.80533800000001	-4.65984000000000	0.39455400000000	0.00000000000000	0.14902700000000	-75.32190799999999	638.52392299999997	-34.38041200000000	0.13320900000000	0.00000000000000	-0.05075500000000	0.00000000000000	-11.40754500000000	0.00000000000000	0.00000000000000	-17.88448600000000	0.00000000000000	
10.61496700000000	24.05393600000000	286.99581499999999	-3.68853300000000	0.39628300000000	0.00000000000000	0.14923200000000	-75.93790300000001	630.37906799999996	-33.54340400000000	0.13235200000000	0.00000000000000	-0.05060700000000	0.00000000000000	-11.17940200000000	0.00000000000000	0.00000000000000	-17.70562200000000	0.00000000000000	
10.61663200000000	25.92028600000000	297.20399800000001	-2.66152300000000	0.39795700000000	0.00000000000000	0.14943000000000	-76.49347500000000	622.04506100000003	-32.69182000000000	0.13153300000000	0.00000000000000	-0.05045400000000	0.00000000000000	-10.91311700000000	0.00000000000000	0.00000000000000	-17.51875000000000	0.00000000000000	
10.61829800000000	27.81679400000000	307.41754900000001	-1.58041100000000	0.39957500000000	0.00000000000000	0.14962100000000	-76.98613300000000	613.52485799999999	-31.82662000000000	0.13075000000000	0.00000000000000	-0.05029500000000	0.00000000000000	-10.60879000000000	0.00000000000000	0.00000000000000	-17.32373500000000	0.00000000000000	
10.61996200000000	29.73890800000000	317.62610699999999	-0.44748500000000	0.40113600000000	0.00000000000000	0.14980700000000	-77.41351200000000	604.82178099999999	-30.94882300000000	0.13000700000000	0.00000000000000	-0.05013200000000	0.00000000000000	-10.26700100000000	0.00000000000000	0.00000000000000	-17.12046200000000	0.00000000000000	
